# xmcd CD database file
#
# Track frame offsets:
#	182
#	48792
#	80392
#	109890
#	115780
#	157075
#	196567
#
# Disc length: 3158 seconds
#
# Revision: 0
# Processed by: cddbd v1.5.1PL0 Copyright (c) Steve Scherf et al.
# Submitted via: CDex 1.51
#
DISCID=4c0c5407
DTITLE=Bud Powell - At The Golden Circle Volume1
DYEAR=1962
DGENRE=Jazz
TTITLE0=Swedish Pastry
TTITLE1=There'll Never Be Another You
TTITLE2=Move
TTITLE3=Just A Gigolo
TTITLE4=Relaxin' At Camarillo
TTITLE5=I Remember Clifford
TTITLE6=Reets And I
EXTD=YEAR: 1962
EXTT0=
EXTT1=
EXTT2=
EXTT3=
EXTT4=
EXTT5=
EXTT6=
PLAYORDER=
